<svg xmlns="http://www.w3.org/2000/svg" width="21.155" height="25.792" viewBox="0 0 21.155 25.792">
  <g id="apple" transform="translate(-46.022)">
    <path id="Trazado_2575" data-name="Trazado 2575" d="M53.036,137.808c-3.839-.022-7.014-7.858-7.014-11.849,0-6.519,4.89-7.946,6.775-7.946a7.8,7.8,0,0,1,2.556.629,5.714,5.714,0,0,0,1.46.418,4.542,4.542,0,0,0,1.047-.339,8.392,8.392,0,0,1,3.156-.763h.007a6.469,6.469,0,0,1,5.413,2.734l.395.593-.568.429a4.781,4.781,0,0,0-2.293,3.943,4.45,4.45,0,0,0,2.483,4.114c.356.214.724.435.724.917,0,.315-2.515,7.081-6.167,7.081a4.96,4.96,0,0,1-2.082-.505,4.223,4.223,0,0,0-1.854-.446,4.767,4.767,0,0,0-1.468.4,7.189,7.189,0,0,1-2.546.594Z" transform="translate(0 -112.016)" fill="#2f2e41"/>
    <path id="Trazado_2576" data-name="Trazado 2576" d="M260,0c.1,3.429-2.357,5.808-4.807,5.659C254.789,2.922,257.642,0,260,0Z" transform="translate(-198.597)" fill="#2f2e41"/>
  </g>
</svg>
