<svg xmlns="http://www.w3.org/2000/svg" width="10.753" height="19.604" viewBox="0 0 10.753 19.604">
  <g id="smartphone" transform="translate(-113.692)">
    <g id="Grupo_973" data-name="Grupo 973" transform="translate(113.692)">
      <path id="Trazado_2221" data-name="Trazado 2221" d="M122.4,0h-6.623a2.081,2.081,0,0,0-2.083,2.044V17.563a2.062,2.062,0,0,0,2.062,2.041l6.634-.007a2.048,2.048,0,0,0,2.047-2.042l.01-15.513A2.044,2.044,0,0,0,122.4,0Zm-4.268,1.225h1.921a.306.306,0,0,1,0,.613h-1.921a.306.306,0,0,1,0-.613Zm-1.155.1a.317.317,0,0,1,.434,0,.307.307,0,0,1-.216.524.314.314,0,0,1-.218-.09.309.309,0,0,1,0-.434ZM119.028,19a.917.917,0,1,1,.917-.917A.918.918,0,0,1,119.028,19Zm4.466-2.456h-8.73V2.91h8.73Z" transform="translate(-113.692)" fill="#bfcf51"/>
    </g>
  </g>
</svg>
