<svg xmlns="http://www.w3.org/2000/svg" width="30.767" height="30.901" viewBox="0 0 30.767 30.901">
  <g id="whatsapp" transform="translate(0)">
    <path id="Trazado_5978" data-name="Trazado 5978" d="M.658,30.9a.658.658,0,0,1-.634-.831l2.009-7.336a15.323,15.323,0,1,1,13.413,7.913h-.007a15.353,15.353,0,0,1-7.09-1.741L.824,30.879A.661.661,0,0,1,.658,30.9Zm0,0" transform="translate(0)" fill="#e5e5e5"/>
    <path id="Trazado_5979" data-name="Trazado 5979" d="M10.895,40.48l2.08-7.6a14.665,14.665,0,1,1,12.707,7.343h-.006a14.652,14.652,0,0,1-7.007-1.785Zm8.134-4.692.445.264a12.172,12.172,0,0,0,6.2,1.7h0A12.187,12.187,0,1,0,15.357,32.04l.29.461L14.415,37Zm0,0" transform="translate(-10.237 -10.237)" fill="#fff"/>
    <path id="Trazado_5980" data-name="Trazado 5980" d="M19.344,47.945l2.008-7.334A14.157,14.157,0,1,1,33.619,47.7h-.006a14.154,14.154,0,0,1-6.765-1.722Zm0,0" transform="translate(-18.176 -18.213)" fill="#64b161"/>
    <g id="Grupo_6845" data-name="Grupo 6845" transform="translate(0.658 0.658)">
      <path id="Trazado_5981" data-name="Trazado 5981" d="M10.895,40.48l2.08-7.6a14.665,14.665,0,1,1,12.707,7.343h-.006a14.652,14.652,0,0,1-7.007-1.785Zm8.134-4.692.445.264a12.172,12.172,0,0,0,6.2,1.7h0A12.187,12.187,0,1,0,15.357,32.04l.29.461L14.415,37Zm0,0" transform="translate(-10.895 -10.895)" fill="#fff"/>
      <path id="Trazado_5982" data-name="Trazado 5982" d="M136.232,142.255c-.274-.61-.563-.622-.825-.633-.214-.009-.458-.009-.7-.009a1.347,1.347,0,0,0-.977.459,4.107,4.107,0,0,0-1.283,3.056,7.127,7.127,0,0,0,1.5,3.79c.183.244,2.535,4.062,6.259,5.531,3.1,1.221,3.725.978,4.4.917a3.7,3.7,0,0,0,2.473-1.742,3.06,3.06,0,0,0,.214-1.742c-.092-.153-.336-.244-.7-.427s-2.168-1.07-2.5-1.192-.58-.183-.824.184-.946,1.192-1.16,1.436-.428.276-.794.092a10.018,10.018,0,0,1-2.946-1.819,11.041,11.041,0,0,1-2.039-2.537c-.214-.366,0-.547.161-.748a11.052,11.052,0,0,0,.916-1.253.675.675,0,0,0-.03-.642C137.27,144.792,136.557,142.98,136.232,142.255Zm0,0" transform="translate(-125.109 -133.724)" fill="#fff" fill-rule="evenodd"/>
    </g>
  </g>
</svg>
