<svg xmlns="http://www.w3.org/2000/svg" width="21.871" height="25.609" viewBox="0 0 21.871 25.609">
  <g id="XMLID_91_" transform="translate(-22.257)">
    <path id="XMLID_92_" d="M43.449,20.562c-.751-.308-1.072-.716-1.041-1.325a2.031,2.031,0,0,0-.563-1.437,6.23,6.23,0,0,0,0-3.3,28.488,28.488,0,0,0-3.51-5.727,4.916,4.916,0,0,1-.693-2.932,8.914,8.914,0,0,0-.657-3.571A3.693,3.693,0,0,0,33.474,0,4.807,4.807,0,0,0,30.8.813c-1.534,1.059-1.331,3.367-1.2,4.894.018.209.036.407.046.575a7.569,7.569,0,0,1-.1,2.524,10.361,10.361,0,0,1-.766,1.074c-.371.488-.791,1.041-1.135,1.557a12.193,12.193,0,0,0-1.063,2.485,11.915,11.915,0,0,1-.672,1.683,2.292,2.292,0,0,0-.222,1.722,1.769,1.769,0,0,0-.567.718c-.228.487-.691.749-1.654.934a1.275,1.275,0,0,0-.907.553,1.568,1.568,0,0,0,.01,1.253,1.95,1.95,0,0,1-.129,1.413c-.045.135-.095.287-.146.455a.821.821,0,0,0,.086.717c.364.556,1.425.752,2.517.881a9.7,9.7,0,0,1,2.057.591,9.654,9.654,0,0,0,2.012.58,2.287,2.287,0,0,0,.285.018,1.674,1.674,0,0,0,1.531-.9,17.02,17.02,0,0,1,2.76-.326,11.987,11.987,0,0,1,2.743.282,2.207,2.207,0,0,0,.827.9,2.005,2.005,0,0,0,.93.209h0a2.242,2.242,0,0,0,1.634-.675,14.644,14.644,0,0,1,2.964-1.893c.227-.123.439-.238.625-.341a1.4,1.4,0,0,0,.854-1.24A1.049,1.049,0,0,0,43.449,20.562Zm-12.634-.114c-.071-.5-.715-1-1.46-1.571a5.165,5.165,0,0,1-1.491-1.454,4.382,4.382,0,0,1,.457-3.409,8.657,8.657,0,0,0,.7-1.68,6.039,6.039,0,0,1,.727-1.661,4.238,4.238,0,0,0,.871-2.114,2.639,2.639,0,0,0,1.557.847.918.918,0,0,0,.25-.034,8.413,8.413,0,0,0,1.492-.751,6.373,6.373,0,0,1,1.268-.637,35.391,35.391,0,0,1,2.768,6.889,7.3,7.3,0,0,1-.1,2.627,1.932,1.932,0,0,0-.259-.019c-.605,0-.765.33-.807.528a21.359,21.359,0,0,0-.12,2.519,5.006,5.006,0,0,1-2.914,1.823,12.617,12.617,0,0,1-1.8.142,6.067,6.067,0,0,1-.886-.055l-.8-.913A.97.97,0,0,0,30.815,20.448ZM31.828,5.386l-.074.035a1.487,1.487,0,0,0-.017-.164.931.931,0,0,0-.791-.866.559.559,0,0,0-.085.007.662.662,0,0,0-.489.438c.083-.516.375-.9.722-.9.407,0,.751.549.751,1.2A1.773,1.773,0,0,1,31.828,5.386Zm3.164.387a1.271,1.271,0,0,0,.057-.381.956.956,0,0,0-.851-1.05.966.966,0,0,0-.845,1.05q0,.059.006.118l-.072-.028a1.606,1.606,0,0,1-.081-.505,1.033,1.033,0,1,1,2.007,0A1.5,1.5,0,0,1,34.993,5.773Zm-.408,1.371c-.008.036-.025.051-.213.149-.095.049-.213.111-.36.2l-.1.06a9.129,9.129,0,0,1-1.575.836c-.171.023-.277-.043-.515-.2-.054-.037-.111-.075-.172-.114a2.017,2.017,0,0,1-.736-.712c.14-.108.486-.379.664-.539a1.917,1.917,0,0,1,.9-.56l.027,0a8.974,8.974,0,0,1,1.11.4c.175.07.327.13.434.169A1.039,1.039,0,0,1,34.585,7.144ZM37.6,22.792a12.433,12.433,0,0,0,.372-2.7c-.008-.156-.022-.325-.035-.489a4.5,4.5,0,0,1-.024-.9l.025-.009a1.522,1.522,0,0,0,.712,1.446,1.575,1.575,0,0,0,.633.122,2.584,2.584,0,0,0,1.606-.592,2.921,2.921,0,0,0,.407-.535.646.646,0,0,1,.028.252,1.807,1.807,0,0,0,.778,1.628l.078.041c.19.1.7.365.7.491a.112.112,0,0,1-.032.041,7.3,7.3,0,0,1-1,.564,8.774,8.774,0,0,0-2.021,1.243,2.762,2.762,0,0,1-1.543.965.406.406,0,0,1-.123-.017C37.758,24.215,37.423,23.629,37.6,22.792ZM23.74,20.611a1.139,1.139,0,0,1-.039-.5c.026-.11.569-.228.8-.278a3.12,3.12,0,0,0,.884-.278,1.792,1.792,0,0,0,.6-.808,1.254,1.254,0,0,1,.336-.5.071.071,0,0,1,.039-.009c.237,0,.735.5,1.022.946.073.113.208.338.364.6a19.16,19.16,0,0,0,1.439,2.208c.3.322.787.942.668,1.473a1.613,1.613,0,0,1-.664.821.681.681,0,0,1-.148.014,9.441,9.441,0,0,1-2.582-.817l-.1-.042a8.184,8.184,0,0,0-1.6-.356,5.216,5.216,0,0,1-1.237-.278c-.088-.1.014-.418.1-.7a4.541,4.541,0,0,0,.168-.632A2.3,2.3,0,0,0,23.74,20.611Z" transform="translate(0)" fill="#2f2e41"/>
  </g>
</svg>
